<svg xmlns="http://www.w3.org/2000/svg" viewBox="0 0 1920 1080" font-family="IBM Plex Sans, -apple-system, sans-serif">
  <defs>
    <style>
      .layer-label { font-size: 13px; font-weight: 600; letter-spacing: 0.08em; text-transform: uppercase; }
      .layer-title { font-size: 18px; font-weight: 500; }
      .layer-desc { font-size: 13px; fill: #6b6b6b; }
      .service-box text { font-size: 12px; }
      .arrow { stroke: #999; stroke-width: 1.5; fill: none; marker-end: url(#arrowhead); }
      .arrow-dashed { stroke: #999; stroke-width: 1.5; fill: none; stroke-dasharray: 6 4; marker-end: url(#arrowhead); }
      .cross-cut-label { font-size: 11px; font-weight: 500; letter-spacing: 0.06em; text-transform: uppercase; fill: #6b6b6b; }
    </style>
    <marker id="arrowhead" markerWidth="8" markerHeight="6" refX="8" refY="3" orient="auto">
      <path d="M0,0 L8,3 L0,6" fill="none" stroke="#999" stroke-width="1"/>
    </marker>
    <marker id="arrowhead-accent" markerWidth="8" markerHeight="6" refX="8" refY="3" orient="auto">
      <path d="M0,0 L8,3 L0,6" fill="none" stroke="#1a1a1a" stroke-width="1"/>
    </marker>
  </defs>

  <!-- Background -->
  <rect width="1920" height="1080" fill="#fafaf8"/>

  <!-- Title -->
  <text x="960" y="52" text-anchor="middle" font-family="Fraunces, Georgia, serif" font-size="28" font-weight="500" fill="#1a1a1a">Target-State Enterprise Architecture</text>
  <text x="960" y="78" text-anchor="middle" font-size="14" fill="#6b6b6b">How enterprise data platforms and operational platforms coexist</text>

  <!-- Cross-cutting concerns - vertical bar on left -->
  <rect x="40" y="110" width="44" height="920" rx="4" fill="#1a1a1a"/>
  <text x="62" y="570" text-anchor="middle" transform="rotate(-90, 62, 570)" font-size="11" font-weight="600" letter-spacing="0.1em" fill="#fafaf8">GOVERNANCE  ·  LINEAGE  ·  SECURITY  ·  OBSERVABILITY</text>

  <!-- Cross-cutting concerns - vertical bar on right -->
  <rect x="1836" y="110" width="44" height="920" rx="4" fill="#1a1a1a"/>
  <text x="1858" y="570" text-anchor="middle" transform="rotate(90, 1858, 570)" font-size="11" font-weight="600" letter-spacing="0.1em" fill="#fafaf8">GOVERNANCE  ·  LINEAGE  ·  SECURITY  ·  OBSERVABILITY</text>

  <!-- ============ LAYER 1: SOURCE SYSTEMS ============ -->
  <rect x="120" y="110" width="1680" height="100" rx="4" fill="#fff" stroke="#e8e8e8" stroke-width="1"/>
  <text x="140" y="140" class="layer-label" fill="#999">LAYER 1</text>
  <text x="220" y="140" class="layer-title" fill="#1a1a1a">Source Systems</text>
  <!-- Source system boxes -->
  <rect x="160" y="155" width="120" height="40" rx="3" fill="#f5f5f3" stroke="#e8e8e8"/>
  <text x="220" y="180" text-anchor="middle" font-size="12" fill="#1a1a1a">ERP</text>
  <rect x="300" y="155" width="120" height="40" rx="3" fill="#f5f5f3" stroke="#e8e8e8"/>
  <text x="360" y="180" text-anchor="middle" font-size="12" fill="#1a1a1a">CRM</text>
  <rect x="440" y="155" width="140" height="40" rx="3" fill="#f5f5f3" stroke="#e8e8e8"/>
  <text x="510" y="180" text-anchor="middle" font-size="12" fill="#1a1a1a">Core Banking</text>
  <rect x="600" y="155" width="120" height="40" rx="3" fill="#f5f5f3" stroke="#e8e8e8"/>
  <text x="660" y="180" text-anchor="middle" font-size="12" fill="#1a1a1a">Payments</text>
  <rect x="740" y="155" width="160" height="40" rx="3" fill="#f5f5f3" stroke="#e8e8e8"/>
  <text x="820" y="180" text-anchor="middle" font-size="12" fill="#1a1a1a">Custom Apps</text>
  <rect x="920" y="155" width="140" height="40" rx="3" fill="#f5f5f3" stroke="#e8e8e8"/>
  <text x="990" y="180" text-anchor="middle" font-size="12" fill="#1a1a1a">Insurance Core</text>
  <rect x="1080" y="155" width="140" height="40" rx="3" fill="#f5f5f3" stroke="#e8e8e8"/>
  <text x="1150" y="180" text-anchor="middle" font-size="12" fill="#1a1a1a">Third Party</text>
  <rect x="1240" y="155" width="120" height="40" rx="3" fill="#f5f5f3" stroke="#e8e8e8"/>
  <text x="1300" y="180" text-anchor="middle" font-size="12" fill="#1a1a1a">IoT / Events</text>

  <!-- Arrows from Layer 1 to Layer 2 -->
  <path d="M960,210 L960,230" class="arrow"/>

  <!-- ============ LAYER 2: EVENT BACKBONE ============ -->
  <rect x="120" y="235" width="1680" height="75" rx="4" fill="#1a1a1a"/>
  <text x="140" y="265" class="layer-label" fill="#666">LAYER 2</text>
  <text x="220" y="265" font-size="18" font-weight="500" fill="#fafaf8">Event / Message Backbone</text>
  <text x="960" y="290" text-anchor="middle" font-size="12" fill="rgba(255,255,255,0.5)">CDC  ·  Streaming Events  ·  Batch Extracts  ·  Change Notifications  ·  Domain Events</text>

  <!-- Split arrows from backbone -->
  <!-- Left arrow to Operational -->
  <path d="M480,310 L480,350" class="arrow"/>
  <!-- Right arrow to EDP -->
  <path d="M1200,310 L1200,350" class="arrow"/>

  <!-- ============ LEFT SIDE: OPERATIONAL ============ -->
  <!-- Layer 3: Operational Services -->
  <rect x="120" y="355" width="720" height="200" rx="4" fill="#fff" stroke="#e8e8e8" stroke-width="1"/>
  <text x="140" y="385" class="layer-label" fill="#999">LAYER 3</text>
  <text x="220" y="385" class="layer-title" fill="#1a1a1a">Operational Services & Workflows</text>
  <text x="140" y="405" class="layer-desc">Business process execution -- the systems that run the business</text>

  <!-- Operational service boxes -->
  <rect x="160" y="420" width="150" height="50" rx="3" fill="#f5f5f3" stroke="#e8e8e8"/>
  <text x="235" y="440" text-anchor="middle" font-size="12" font-weight="500" fill="#1a1a1a">Workflow Engine</text>
  <text x="235" y="456" text-anchor="middle" font-size="11" fill="#999">Temporal / BPM</text>

  <rect x="325" y="420" width="150" height="50" rx="3" fill="#f5f5f3" stroke="#e8e8e8"/>
  <text x="400" y="440" text-anchor="middle" font-size="12" font-weight="500" fill="#1a1a1a">Microservices</text>
  <text x="400" y="456" text-anchor="middle" font-size="11" fill="#999">APIs / Business Logic</text>

  <rect x="490" y="420" width="150" height="50" rx="3" fill="#f5f5f3" stroke="#e8e8e8"/>
  <text x="565" y="440" text-anchor="middle" font-size="12" font-weight="500" fill="#1a1a1a">Case Mgmt</text>
  <text x="565" y="456" text-anchor="middle" font-size="11" fill="#999">Claims / Disputes</text>

  <rect x="655" y="420" width="150" height="50" rx="3" fill="#f5f5f3" stroke="#e8e8e8"/>
  <text x="730" y="440" text-anchor="middle" font-size="12" font-weight="500" fill="#1a1a1a">Payments</text>
  <text x="730" y="456" text-anchor="middle" font-size="11" fill="#999">Settlement / Clearing</text>

  <!-- SLA badge -->
  <rect x="160" y="490" width="100" height="24" rx="12" fill="#1a1a1a"/>
  <text x="210" y="506" text-anchor="middle" font-size="10" font-weight="500" fill="#fafaf8">SLA: 99.9%+</text>

  <rect x="275" y="490" width="100" height="24" rx="12" fill="none" stroke="#1a1a1a"/>
  <text x="325" y="506" text-anchor="middle" font-size="10" font-weight="500" fill="#1a1a1a">Latency: ms</text>

  <rect x="390" y="490" width="80" height="24" rx="12" fill="none" stroke="#1a1a1a"/>
  <text x="430" y="506" text-anchor="middle" font-size="10" font-weight="500" fill="#1a1a1a">ACID</text>

  <!-- Arrow from Layer 3 to 3a -->
  <path d="M480,555 L480,580" class="arrow"/>

  <!-- Layer 3a: ODS -->
  <rect x="120" y="585" width="720" height="130" rx="4" fill="#fff" stroke="#e8e8e8" stroke-width="1"/>
  <text x="140" y="615" class="layer-label" fill="#999">LAYER 3A</text>
  <text x="240" y="615" class="layer-title" fill="#1a1a1a">Operational Data Store / Serving Stores</text>
  <text x="140" y="635" class="layer-desc">Current-state, low-latency, transactionally consistent</text>

  <rect x="160" y="650" width="130" height="45" rx="3" fill="#f5f5f3" stroke="#e8e8e8"/>
  <text x="225" y="670" text-anchor="middle" font-size="12" font-weight="500" fill="#1a1a1a">RDBMS</text>
  <text x="225" y="685" text-anchor="middle" font-size="11" fill="#999">PostgreSQL / SQL</text>

  <rect x="305" y="650" width="130" height="45" rx="3" fill="#f5f5f3" stroke="#e8e8e8"/>
  <text x="370" y="670" text-anchor="middle" font-size="12" font-weight="500" fill="#1a1a1a">Document Store</text>
  <text x="370" y="685" text-anchor="middle" font-size="11" fill="#999">Cosmos / Firestore</text>

  <rect x="450" y="650" width="130" height="45" rx="3" fill="#f5f5f3" stroke="#e8e8e8"/>
  <text x="515" y="670" text-anchor="middle" font-size="12" font-weight="500" fill="#1a1a1a">Cache</text>
  <text x="515" y="685" text-anchor="middle" font-size="11" fill="#999">Redis / Memcache</text>

  <rect x="595" y="650" width="130" height="45" rx="3" fill="#f5f5f3" stroke="#e8e8e8"/>
  <text x="660" y="670" text-anchor="middle" font-size="12" font-weight="500" fill="#1a1a1a">Search</text>
  <text x="660" y="685" text-anchor="middle" font-size="11" fill="#999">Elasticsearch</text>

  <!-- ============ RIGHT SIDE: EDP ============ -->
  <!-- Layer 4: EDP -->
  <rect x="880" y="355" width="920" height="360" rx="4" fill="#fff" stroke="#1a1a1a" stroke-width="2"/>
  <text x="900" y="385" class="layer-label" fill="#999">LAYER 4</text>
  <text x="980" y="385" class="layer-title" fill="#1a1a1a">Enterprise Data Platform</text>
  <text x="900" y="405" class="layer-desc">Analytical heart -- historical, governed, integrated</text>

  <!-- Bronze -->
  <rect x="920" y="425" width="260" height="110" rx="3" fill="#f5f5f3" stroke="#e8e8e8"/>
  <rect x="920" y="425" width="260" height="30" rx="3" fill="#8d6e63" stroke="none"/>
  <rect x="920" y="452" width="260" height="0" rx="0" fill="none"/>
  <text x="1050" y="445" text-anchor="middle" font-size="12" font-weight="600" fill="#fff">BRONZE / RAW</text>
  <text x="1050" y="478" text-anchor="middle" font-size="11" fill="#6b6b6b">Raw ingestion</text>
  <text x="1050" y="494" text-anchor="middle" font-size="11" fill="#6b6b6b">Source-aligned schemas</text>
  <text x="1050" y="510" text-anchor="middle" font-size="11" fill="#6b6b6b">Append-only, immutable</text>
  <text x="1050" y="526" text-anchor="middle" font-size="11" fill="#6b6b6b">CDC / batch / streaming</text>

  <!-- Arrow bronze to silver -->
  <path d="M1180,480 L1210,480" class="arrow" stroke="#1a1a1a" marker-end="url(#arrowhead-accent)"/>

  <!-- Silver -->
  <rect x="1220" y="425" width="260" height="110" rx="3" fill="#f5f5f3" stroke="#e8e8e8"/>
  <rect x="1220" y="425" width="260" height="30" rx="3" fill="#78909c" stroke="none"/>
  <text x="1350" y="445" text-anchor="middle" font-size="12" font-weight="600" fill="#fff">SILVER / CURATED</text>
  <text x="1350" y="478" text-anchor="middle" font-size="11" fill="#6b6b6b">Cleansed & conformed</text>
  <text x="1350" y="494" text-anchor="middle" font-size="11" fill="#6b6b6b">Deduplicated</text>
  <text x="1350" y="510" text-anchor="middle" font-size="11" fill="#6b6b6b">Business keys applied</text>
  <text x="1350" y="526" text-anchor="middle" font-size="11" fill="#6b6b6b">Quality validated</text>

  <!-- Arrow silver to gold -->
  <path d="M1480,480 L1510,480" class="arrow" stroke="#1a1a1a" marker-end="url(#arrowhead-accent)"/>

  <!-- Gold -->
  <rect x="1520" y="425" width="260" height="110" rx="3" fill="#f5f5f3" stroke="#e8e8e8"/>
  <rect x="1520" y="425" width="260" height="30" rx="3" fill="#c9a84c" stroke="none"/>
  <text x="1650" y="445" text-anchor="middle" font-size="12" font-weight="600" fill="#fff">GOLD / CONSUMPTION</text>
  <text x="1650" y="478" text-anchor="middle" font-size="11" fill="#6b6b6b">Business-ready</text>
  <text x="1650" y="494" text-anchor="middle" font-size="11" fill="#6b6b6b">Aggregated metrics</text>
  <text x="1650" y="510" text-anchor="middle" font-size="11" fill="#6b6b6b">Domain-specific models</text>
  <text x="1650" y="526" text-anchor="middle" font-size="11" fill="#6b6b6b">SCD / historized</text>

  <!-- EDP infrastructure boxes -->
  <rect x="920" y="555" width="180" height="40" rx="3" fill="#1a1a1a"/>
  <text x="1010" y="580" text-anchor="middle" font-size="11" font-weight="500" fill="#fafaf8">Lakehouse / Warehouse</text>

  <rect x="1115" y="555" width="180" height="40" rx="3" fill="#1a1a1a"/>
  <text x="1205" y="580" text-anchor="middle" font-size="11" font-weight="500" fill="#fafaf8">Data Quality Engine</text>

  <rect x="1310" y="555" width="180" height="40" rx="3" fill="#1a1a1a"/>
  <text x="1400" y="580" text-anchor="middle" font-size="11" font-weight="500" fill="#fafaf8">Orchestration</text>

  <rect x="1505" y="555" width="180" height="40" rx="3" fill="#1a1a1a"/>
  <text x="1595" y="580" text-anchor="middle" font-size="11" font-weight="500" fill="#fafaf8">Lineage & Catalog</text>

  <!-- EDP SLA badges -->
  <rect x="920" y="610" width="120" height="24" rx="12" fill="none" stroke="#999"/>
  <text x="980" y="626" text-anchor="middle" font-size="10" font-weight="500" fill="#6b6b6b">SLA: 99.5%</text>

  <rect x="1055" y="610" width="140" height="24" rx="12" fill="none" stroke="#999"/>
  <text x="1125" y="626" text-anchor="middle" font-size="10" font-weight="500" fill="#6b6b6b">Latency: min-hrs</text>

  <rect x="1210" y="610" width="120" height="24" rx="12" fill="none" stroke="#999"/>
  <text x="1270" y="626" text-anchor="middle" font-size="10" font-weight="500" fill="#6b6b6b">Append-only</text>

  <!-- Arrow from EDP to Layer 5 -->
  <path d="M1340,715 L1340,745" class="arrow"/>

  <!-- ============ LAYER 5: DATA PRODUCTS ============ -->
  <rect x="880" y="750" width="920" height="100" rx="4" fill="#fff" stroke="#e8e8e8" stroke-width="1"/>
  <text x="900" y="780" class="layer-label" fill="#999">LAYER 5</text>
  <text x="980" y="780" class="layer-title" fill="#1a1a1a">Semantic / Data Product Layer</text>

  <rect x="920" y="800" width="160" height="35" rx="3" fill="#f5f5f3" stroke="#1a1a1a" stroke-width="1"/>
  <text x="1000" y="822" text-anchor="middle" font-size="11" font-weight="500" fill="#1a1a1a">Customer 360</text>

  <rect x="1095" y="800" width="160" height="35" rx="3" fill="#f5f5f3" stroke="#1a1a1a" stroke-width="1"/>
  <text x="1175" y="822" text-anchor="middle" font-size="11" font-weight="500" fill="#1a1a1a">Risk Analytics</text>

  <rect x="1270" y="800" width="160" height="35" rx="3" fill="#f5f5f3" stroke="#1a1a1a" stroke-width="1"/>
  <text x="1350" y="822" text-anchor="middle" font-size="11" font-weight="500" fill="#1a1a1a">Regulatory Reports</text>

  <rect x="1445" y="800" width="160" height="35" rx="3" fill="#f5f5f3" stroke="#1a1a1a" stroke-width="1"/>
  <text x="1525" y="822" text-anchor="middle" font-size="11" font-weight="500" fill="#1a1a1a">ML Features</text>

  <rect x="1620" y="800" width="160" height="35" rx="3" fill="#f5f5f3" stroke="#1a1a1a" stroke-width="1"/>
  <text x="1700" y="822" text-anchor="middle" font-size="11" font-weight="500" fill="#1a1a1a">Executive MI</text>

  <!-- Arrow from Layer 5 to Layer 6 -->
  <path d="M1340,850 L1340,880" class="arrow"/>

  <!-- ============ LAYER 6: CONSUMPTION ============ -->
  <rect x="120" y="885" width="1680" height="145" rx="4" fill="#fff" stroke="#e8e8e8" stroke-width="1"/>
  <text x="140" y="915" class="layer-label" fill="#999">LAYER 6</text>
  <text x="220" y="915" class="layer-title" fill="#1a1a1a">AI / ML / Analytics Consumption</text>

  <rect x="160" y="935" width="170" height="70" rx="3" fill="#f5f5f3" stroke="#e8e8e8"/>
  <text x="245" y="960" text-anchor="middle" font-size="12" font-weight="500" fill="#1a1a1a">BI & Dashboards</text>
  <text x="245" y="978" text-anchor="middle" font-size="11" fill="#999">Power BI / Looker</text>
  <text x="245" y="993" text-anchor="middle" font-size="11" fill="#999">Tableau</text>

  <rect x="350" y="935" width="170" height="70" rx="3" fill="#f5f5f3" stroke="#e8e8e8"/>
  <text x="435" y="960" text-anchor="middle" font-size="12" font-weight="500" fill="#1a1a1a">Data Science</text>
  <text x="435" y="978" text-anchor="middle" font-size="11" fill="#999">Notebooks</text>
  <text x="435" y="993" text-anchor="middle" font-size="11" fill="#999">ML Training</text>

  <rect x="540" y="935" width="170" height="70" rx="3" fill="#f5f5f3" stroke="#e8e8e8"/>
  <text x="625" y="960" text-anchor="middle" font-size="12" font-weight="500" fill="#1a1a1a">Feature Store</text>
  <text x="625" y="978" text-anchor="middle" font-size="11" fill="#999">Offline + Online</text>
  <text x="625" y="993" text-anchor="middle" font-size="11" fill="#999">Model Serving</text>

  <rect x="730" y="935" width="170" height="70" rx="3" fill="#f5f5f3" stroke="#e8e8e8"/>
  <text x="815" y="960" text-anchor="middle" font-size="12" font-weight="500" fill="#1a1a1a">Regulatory</text>
  <text x="815" y="978" text-anchor="middle" font-size="11" fill="#999">BCBS 239 / DORA</text>
  <text x="815" y="993" text-anchor="middle" font-size="11" fill="#999">Solvency II</text>

  <rect x="920" y="935" width="170" height="70" rx="3" fill="#f5f5f3" stroke="#e8e8e8"/>
  <text x="1005" y="960" text-anchor="middle" font-size="12" font-weight="500" fill="#1a1a1a">Self-Service</text>
  <text x="1005" y="978" text-anchor="middle" font-size="11" fill="#999">SQL Analytics</text>
  <text x="1005" y="993" text-anchor="middle" font-size="11" fill="#999">Ad-hoc Queries</text>

  <rect x="1110" y="935" width="170" height="70" rx="3" fill="#f5f5f3" stroke="#e8e8e8"/>
  <text x="1195" y="960" text-anchor="middle" font-size="12" font-weight="500" fill="#1a1a1a">Gen AI / RAG</text>
  <text x="1195" y="978" text-anchor="middle" font-size="11" fill="#999">Vector Store</text>
  <text x="1195" y="993" text-anchor="middle" font-size="11" fill="#999">Embeddings</text>

  <rect x="1300" y="935" width="170" height="70" rx="3" fill="#f5f5f3" stroke="#e8e8e8"/>
  <text x="1385" y="960" text-anchor="middle" font-size="12" font-weight="500" fill="#1a1a1a">Reverse ETL</text>
  <text x="1385" y="978" text-anchor="middle" font-size="11" fill="#999">Operational Sync</text>
  <text x="1385" y="993" text-anchor="middle" font-size="11" fill="#999">CRM Enrichment</text>

  <rect x="1490" y="935" width="170" height="70" rx="3" fill="#f5f5f3" stroke="#e8e8e8"/>
  <text x="1575" y="960" text-anchor="middle" font-size="12" font-weight="500" fill="#1a1a1a">Data Apps</text>
  <text x="1575" y="978" text-anchor="middle" font-size="11" fill="#999">Embedded Analytics</text>
  <text x="1575" y="993" text-anchor="middle" font-size="11" fill="#999">API Layer</text>

  <!-- ============ FEEDBACK LOOPS ============ -->
  <!-- Dashed arrow: Feature Store back to ODS (serving) -->
  <path d="M625,935 L625,720 L780,720" class="arrow-dashed"/>
  <text x="640" y="830" font-size="10" fill="#999" transform="rotate(-90, 640, 830)">serving</text>

  <!-- Dashed arrow: Reverse ETL back to Source Systems -->
  <path d="M1385,935 L1385,920 L1750,920 L1750,175 L1370,175" class="arrow-dashed"/>
  <text x="1762" y="550" font-size="10" fill="#999" transform="rotate(-90, 1762, 550)">feedback loop</text>

  <!-- ============ BOUNDARY LABELS ============ -->
  <!-- Operational boundary -->
  <rect x="120" y="330" width="720" height="18" rx="0" fill="none"/>
  <text x="480" y="344" text-anchor="middle" font-size="11" font-weight="600" letter-spacing="0.1em" fill="#999">OPERATIONAL PLATFORM</text>

  <!-- Analytical boundary -->
  <text x="1340" y="344" text-anchor="middle" font-size="11" font-weight="600" letter-spacing="0.1em" fill="#999">ANALYTICAL PLATFORM (EDP)</text>

</svg>
